<svg width="14" height="15" viewBox="0 0 14 15" fill="none" xmlns="http://www.w3.org/2000/svg">
<path d="M6.07431 12.1486C9.42906 12.1486 12.1486 9.42906 12.1486 6.07431C12.1486 2.71956 9.42906 0 6.07431 0C2.71956 0 0 2.71956 0 6.07431C0 9.42906 2.71956 12.1486 6.07431 12.1486ZM6.07431 10.8071C3.46046 10.8071 1.34151 8.68817 1.34151 6.07431C1.34151 3.46046 3.46046 1.34151 6.07431 1.34151C8.68817 1.34151 10.8071 3.46046 10.8071 6.07431C10.8071 8.68817 8.68817 10.8071 6.07431 10.8071Z" fill="white"/>
<path d="M9.51791 10.6672L12.8701 13.8193C13.14 14.0731 13.5645 14.06 13.8183 13.7901C14.072 13.5203 14.059 13.0958 13.7891 12.842L10.4369 9.68991C10.167 9.43615 9.74251 9.44921 9.48874 9.71909C9.23497 9.98896 9.24804 10.4135 9.51791 10.6672Z" fill="white"/>
</svg>
